<svg width="512" height="512" viewBox="0 0 512 512" fill="none" xmlns="http://www.w3.org/2000/svg">
  <defs>
    <linearGradient id="bg" x1="64" y1="64" x2="448" y2="448" gradientUnits="userSpaceOnUse">
      <stop stop-color="#0A1E2D"/>
      <stop offset="1" stop-color="#11354E"/>
    </linearGradient>
  </defs>

  <rect x="56" y="56" width="400" height="400" rx="112" fill="url(#bg)"/>
  <rect x="68" y="68" width="376" height="376" rx="100" stroke="#8FC6E8" stroke-opacity="0.18" stroke-width="2"/>

  <g stroke="#EAF6FF" stroke-width="28" stroke-linecap="round" stroke-linejoin="round">
    <path d="M114 156V356"/>
    <path d="M162 156V356"/>
    <path d="M114 256H162"/>

    <path d="M214 156V298C214 338 231 356 248 356C265 356 282 338 282 298V156"/>

    <path d="M328 156V356"/>
    <path d="M328 156H368C392 156 406 170 406 194C406 218 392 232 368 232H328"/>
    <path d="M328 248H372C398 248 414 264 414 292C414 330 392 356 362 356H328"/>
  </g>
</svg>
